<?xml version="1.0" encoding="iso-8859-1"?>
<!-- Generator: Adobe Illustrator 30.0.0, SVG Export Plug-In . SVG Version: 9.03 Build 0)  -->
<svg version="1.1" id="Layer_1" xmlns="http://www.w3.org/2000/svg" xmlns:xlink="http://www.w3.org/1999/xlink" x="0px" y="0px"
	 viewBox="0 0 3840 1420" style="enable-background:new 0 0 3840 1420;" xml:space="preserve">
<g>
	<path style="fill:#8BD0E6;" d="M4067.73,2386.36H-379.09v-440.88c62.58-129.47,122.3-261.3,194.15-385.74
		c30.82-53.38,62.15-92.71,97.25-141.86c68.77-96.32,154.58-247.72,284.04-256.16c107.75-7.02,223.93,35.02,330.63,4.15
		c135.24-39.12,223.33-174.52,360.78-208.56c149-36.9,317.76-39.44,462.12-90.95c63.5-22.65,136.37-63.9,206.06-56.75
		c14.13,1.45,29.7,8.77,44.66,11.15c52.15,8.3,154.21-13.58,209.4-23.74c45.42-8.36,121.73-20.16,161.43-40.89
		c39.93-20.84,72.26-70.7,119.47-31.58c36.18,29.98,50.48,62.73,106,51.32c16.24-3.34,29.24-13.85,46.78-11.06
		c16.82,2.68,47.09,34.58,55.52,33.1c11.51-38.56,38.38-43.7,63.83-13.09c24.49,29.46,32.82,65.66,71,83.55
		c58.27,27.31,91.89,38.65,141.05,85.34c40.21,38.19,88.53,118.27,146.49,124.68c36.67,4.06,85.54-19.75,109.43-47.74
		c16.86-19.75,22.38-47.58,54.44-43.85c119.45,49.01,240.05,104.63,368.55,124.97c71.72,11.36,175.55,13.07,239.16-27
		c50.02-31.51,31.83-56.07,40.24-105.49c25.2-148.1,187.32-84.74,276.49-42.48c90.72,43,167.48,110.48,257.83,154.08v1295.46
		L4067.73,2386.36z"/>
	<path style="fill:#FBFAF1;" d="M4010.67,2465.71H-436.15v-440.88c62.58-129.47,122.3-261.3,194.15-385.74
		c30.82-53.38,62.15-92.71,97.25-141.86c68.77-96.32,154.58-247.72,284.04-256.16c107.75-7.02,223.93,35.02,330.63,4.15
		c135.24-39.12,223.33-174.52,360.78-208.56c149-36.9,317.76-39.44,462.12-90.95c63.5-22.65,136.37-63.9,206.06-56.75
		c14.13,1.45,29.7,8.77,44.66,11.15c52.15,8.3,154.21-13.58,209.4-23.74c45.42-8.36,121.73-20.16,161.43-40.89
		c39.93-20.84,72.26-70.7,119.47-31.58c36.18,29.98,50.48,62.73,106,51.32c16.24-3.34,29.24-13.85,46.78-11.06
		c16.82,2.68,47.09,34.58,55.52,33.1c11.51-38.56,38.38-43.7,63.83-13.09c24.49,29.46,32.82,65.66,71,83.55
		c58.27,27.31,91.89,38.65,141.05,85.34c40.21,38.19,88.53,118.27,146.49,124.68c36.67,4.06,85.54-19.75,109.43-47.74
		c16.86-19.75,22.38-47.58,54.44-43.85c119.45,49.01,240.05,104.63,368.55,124.97c71.72,11.36,175.55,13.07,239.16-27
		c50.02-31.51,31.83-56.07,40.24-105.49c25.2-148.1,187.32-84.74,276.49-42.48c90.72,43,167.48,110.48,257.83,154.08v1295.46
		L4010.67,2465.71z"/>
</g>
</svg>
