<?xml version="1.0" encoding="UTF-8"?>
<svg width="79px" height="33px" viewBox="0 0 79 33" version="1.1" xmlns="http://www.w3.org/2000/svg" xmlns:xlink="http://www.w3.org/1999/xlink">
    <title>Logo</title>
    <defs>
        <polygon id="path-1" points="0 0.0991727749 78.9588071 0.0991727749 78.9588071 21.9146531 0 21.9146531"></polygon>
    </defs>
    <g id="New" stroke="none" stroke-width="1" fill="none" fill-rule="evenodd">
        <g id="Desktop-HD-Copy" transform="translate(-680, -34)">
            <g id="Header" transform="translate(57, 34)">
                <g id="Logo" transform="translate(623, 0)">
                    <g id="Group-3">
                        <mask id="mask-2" fill="white">
                            <use xlink:href="#path-1"></use>
                        </mask>
                        <g id="Clip-2"></g>
                        <path d="M55.848892,21.5743403 C55.6259991,21.7880052 55.172652,21.8495131 54.8742577,21.8705916 C53.1221506,21.9942984 51.2966863,21.8191047 49.5463849,21.8108115 C41.8923006,21.7742984 34.2149677,21.8998482 26.5749906,21.7458482 C26.2619249,21.6409162 26.1411677,21.4612304 26.1049406,21.1269686 C25.8805806,19.059199 26.140152,16.0662775 26.8863634,14.1244031 C28.9060549,8.86813089 33.6400734,8.73509424 38.4590734,8.57809948 C39.6889906,8.53813089 41.0883063,8.6185288 42.2800777,8.5229267 C43.4122606,8.43204712 43.9053334,7.6945288 43.8139191,6.5690733 C43.7280349,5.5103089 43.0250477,5.12133508 42.0654234,5.05786911 L6.000682,5.05798429 C5.35750914,5.10313613 4.93147343,5.32520942 4.85179629,6.02759686 C4.77437629,6.71017277 4.78927343,8.17587958 4.85292486,8.87089529 C4.92165486,9.62073822 5.10922343,9.79040314 5.83929629,9.84165969 C6.50492771,9.88853927 7.18827771,9.78084293 7.83303057,9.78084293 C11.7730991,9.78061257 15.9719491,10.0464555 19.8913649,9.84177487 C20.2855749,9.82127225 20.8549391,9.77473822 21.201072,9.58560733 C22.3556006,8.95486387 21.2222891,6.72410995 22.7949534,6.54338743 C23.3156763,6.48349215 25.7075706,6.47289529 26.134622,6.59579581 C26.5046806,6.70222513 26.6466549,6.97071728 26.6911206,7.34609948 C26.9212363,9.28578534 25.7658049,12.0608953 24.3298106,13.327911 C22.5159706,14.9281518 20.874802,14.739712 18.6535477,14.7250838 C15.155992,14.7022775 11.6480534,14.7223194 8.158172,14.7849791 C7.55212914,14.7958063 5.70262629,14.671178 5.27613914,14.8646859 C4.92504057,15.0239843 4.875722,15.3919948 4.84683057,15.744801 C4.71636771,17.3376702 4.92357343,19.1306126 4.869402,20.7421414 C4.85687486,21.1163717 4.815682,21.4710209 4.44494629,21.6512827 C3.95514629,21.8893665 1.78298486,21.8633351 1.157192,21.815534 C0.602386286,21.7732618 0.0194791429,21.6460995 -4.51428571e-05,20.9643298 L-4.51428571e-05,1.1309267 C0.0531105714,0.526445026 0.415156286,0.223858639 0.995580571,0.16960733 L42.441802,0.169722513 C47.133612,0.17386911 49.653712,4.97447644 48.172462,9.26343979 C46.3623463,14.5042775 41.0810834,13.4124555 36.7323591,13.5170419 C35.0656849,13.5572408 33.3988977,13.4842147 32.2422249,14.9215864 C31.6849363,15.6140681 31.0424406,16.8704869 32.4270849,16.9817539 L50.6320706,16.9369476 C51.0297791,16.7912408 51.197372,16.4908429 51.2385649,16.0728429 L51.2369849,1.29575393 C51.305602,0.583115183 51.3469077,0.238256545 52.1252834,0.16995288 C53.0509377,0.0888638743 54.8099291,0.0882879581 55.735132,0.16995288 C56.3723234,0.226277487 56.6311049,0.550863874 56.988072,1.03348168 C59.4911306,4.41860209 61.651442,8.12773298 64.1658991,11.504445 C64.4463491,11.8809791 64.9082734,12.721356 65.4206449,12.2557853 C67.739182,9.12015183 69.9380906,5.87198429 72.1654391,2.66102094 C72.9253063,1.56562827 73.3203063,0.284905759 74.7863206,0.172602094 C75.5705649,0.112591623 76.8631177,0.0768848168 77.6403649,0.114664921 C78.5646649,0.159701571 78.8866463,0.304602094 78.9588749,1.29586911 L78.9588749,20.9642147 C78.914522,21.4705602 78.6786506,21.7605916 78.1755334,21.8126545 C77.4161177,21.8913246 75.5908791,21.8995026 74.8392506,21.8135759 C74.2757549,21.7490733 74.0946191,21.3222042 74.0566991,20.7996178 C73.875902,18.3076283 74.098682,15.4119215 74.1150463,12.8899843 C74.121592,11.8941099 74.1669606,10.7931885 74.1150463,9.80952356 C74.1088391,9.69019372 74.0697906,9.16541885 74.0503791,9.10656021 C74.0216006,9.01913613 73.8986991,8.97467539 73.8151849,8.96177487 C73.6685834,8.96603665 73.3583391,9.41859162 73.2615077,9.54713613 C70.7440034,12.890445 68.621612,16.5827592 66.1160706,19.9412723 C65.8544677,20.2268115 65.4696249,20.682822 65.0449434,20.6634712 C64.6819949,20.647 64.1412963,19.9529058 63.9185163,19.6665602 C62.7872363,18.2123717 61.6654363,16.4496073 60.6138334,14.9099529 C59.3917034,13.1205812 58.2053491,10.9257644 56.756602,9.34406806 C56.621512,9.19663351 56.3959106,8.88264398 56.1905106,8.98642408 C55.9427891,9.11151309 56.085102,9.40396335 56.0855534,9.58986911 C56.0888263,10.8696702 56.0333006,12.1642147 56.1390477,13.4346859 C55.984772,15.8150628 56.3367734,18.4490733 56.138822,20.7992723 C56.1172663,21.0545183 56.0348806,21.3961518 55.848892,21.5743403" id="Fill-1" fill="#231F20" mask="url(#mask-2)"></path>
                    </g>
                    <path d="M14.4321767,31.931343 L19.2657329,31.931343 C19.2886855,31.931343 19.4786342,31.7842164 19.4994417,31.7480231 C19.5824571,31.6035857 19.5783814,30.3464543 19.4905395,30.2002241 C19.4675869,30.1620138 19.3446726,30.0611654 19.3168936,30.0611654 L14.4321767,30.0611654 L14.4321767,31.931343 Z M14.5088641,27.068769 L14.4321767,27.1488875 L14.4321767,28.9122779 L14.5088641,28.9923964 L19.2145722,28.9923964 C19.33266,28.9923964 19.5080221,28.8184889 19.5360156,28.6869377 C19.5810627,28.4753802 19.5699082,27.7600288 19.5495298,27.5203458 C19.5329052,27.3260445 19.4296186,27.068769 19.2145722,27.068769 L14.5088641,27.068769 Z M19.4703755,26 C20.2379999,26.0900912 20.9130632,26.7627501 20.9810629,27.5744677 C21.0478828,28.3722907 20.8833536,29.1171122 20.1603473,29.5 C21.1652199,29.9942692 21.2461974,31.7323355 20.5207243,32.4943013 C20.3659552,32.6568913 19.7772322,33 19.5725896,33 L13,33 L13,26 L19.4703755,26 Z" id="Fill-4" fill="#231F20"></path>
                    <polygon id="Fill-6" fill="#231F20" points="46.564097 30.8999887 46.564097 26 48 26 48 33 46.5385039 33 41.5901069 28.2342684 41.435903 28.1538722 41.435903 33 40 33 40 26 41.4103098 26"></polygon>
                    <path d="M23.5127898,27.0768796 L23.435903,27.1576146 L23.435903,28.9345733 L23.5127898,29.0153082 L28.2307413,29.0153082 C28.666362,29.0153082 28.5888299,27.9491555 28.5662477,27.6399916 C28.5507628,27.4288387 28.5039855,27.0768796 28.2307413,27.0768796 L23.5127898,27.0768796 Z M30,33 L28.4358089,33 L27.0256066,30.0923007 L23.435903,30.0923007 L23.435903,33 L22,33 L22,26 L28.1794475,26 C29.6334162,26 30.4858391,27.9478006 29.7023456,29.214379 C29.4256603,29.6616392 29.0129444,29.864888 28.5656025,30.0688142 L30,33 Z" id="Fill-8" fill="#231F20"></path>
                    <path d="M50.4221487,31.9147701 L55.3234654,31.9147701 C55.3749069,31.9147701 55.5263556,31.6494083 55.5023922,31.5632681 C55.4144199,30.2525034 55.615393,28.7804961 55.5035638,27.4897588 C55.4918483,27.3543468 55.4291174,27.0852299 55.272663,27.0852299 L50.4221487,27.0852299 L50.4221487,31.9147701 Z M49,33 L49,26 L55.3742679,26 C55.4018524,26 55.8322353,26.1759217 55.8912386,26.2073282 C56.2616597,26.4047565 56.6630735,26.8699363 56.8102621,27.2874374 C57.0603336,27.9964725 57.0616116,30.9505007 56.8235751,31.672508 C56.6491214,32.2017524 55.9177581,33 55.3742679,33 L49,33 Z" id="Fill-10" fill="#231F20"></path>
                    <path d="M65.6753099,26 L65.6753099,27.0768796 L59.765258,27.0768796 C59.5534528,27.0768796 59.4463699,27.3953027 59.4299534,27.5857919 C59.3975495,27.962028 59.3256602,28.8880519 59.7380044,28.9888858 L64.3700362,29.0158728 C66.1831488,29.2052328 66.6227465,32.0762344 64.9771252,32.830626 C64.9000857,32.8659687 64.5736868,33 64.524008,33 L58,33 L58,31.9231204 L64.3704653,31.9231204 C64.6085584,31.9231204 64.5703605,30.7065636 64.5520127,30.4936041 C64.5379567,30.3304405 64.5178921,30.1821819 64.360594,30.1028019 L59.8683708,30.0915103 C58.4722162,29.9868372 57.589158,28.5182521 58.1948522,27.1474521 C58.4470013,26.5767748 59.2122468,26 59.8164389,26 L65.6753099,26 Z" id="Fill-12" fill="#231F20"></path>
                    <path d="M35.9672715,30.0402064 L35.0885916,28.2806706 L34.9481388,28.1560858 L33.9803191,30.0402064 L35.9672715,30.0402064 Z M39,33 L37.4836358,33 L36.5079217,31.125133 L33.4937229,31.1268257 C33.2850721,31.191488 32.6553917,32.7449621 32.4378598,33 L31,33 L34.632257,26 L35.4189463,26.0573271 L39,33 Z" id="Fill-14" fill="#231F20"></path>
                </g>
            </g>
        </g>
    </g>
</svg>